<svg width="1615" height="38" viewBox="0 0 1615 38" fill="none" xmlns="http://www.w3.org/2000/svg">
<g clip-path="url(#clip0_1567_15845)">
<rect y="13" width="20" height="25" fill="#DBDFF1"/>
<rect x="22" y="11" width="20" height="27" fill="#DBDFF1"/>
<rect x="44" y="10" width="20" height="28" fill="#DBDFF1"/>
<rect x="66" y="7" width="20" height="31" fill="#DBDFF1"/>
<rect x="88" y="7" width="21" height="31" fill="#DBDFF1"/>
<rect x="111" y="14" width="21" height="24" fill="#DBDFF1"/>
<rect x="134" y="7" width="21" height="31" fill="#DBDFF1"/>
<rect x="157" width="20" height="38" fill="#DBDFF1"/>
<rect x="179" y="2" width="20" height="36" fill="#DBDFF1"/>
<rect x="201" y="2" width="20" height="36" fill="#DBDFF1"/>
<rect x="223" y="7" width="20" height="31" fill="#DBDFF1"/>
<rect x="245" y="7" width="20" height="31" fill="#DBDFF1"/>
<rect x="267" width="20" height="38" fill="#DBDFF1"/>
<rect x="289" y="7" width="20" height="31" fill="#DBDFF1"/>
<rect x="311" y="14" width="20" height="24" fill="#DBDFF1"/>
<rect x="333" y="24" width="20" height="14" fill="#DBDFF1"/>
<rect x="355" y="19" width="20" height="19" fill="#DBDFF1"/>
<rect x="377" y="20" width="20" height="18" fill="#DBDFF1"/>
<rect x="399" y="24" width="20" height="14" fill="#DBDFF1"/>
<rect x="421" y="24" width="20" height="14" fill="#FF708B"/>
<rect x="443" y="22" width="20" height="16" fill="#FF708B"/>
<rect x="465" y="21" width="20" height="17" fill="#FF708B"/>
<rect x="487" y="19" width="20" height="19" fill="#FF708B"/>
<rect x="509" y="13" width="20" height="25" fill="#FF708B"/>
<rect x="531" y="11" width="20" height="27" fill="#FF708B"/>
<rect x="553" y="10" width="20" height="28" fill="#FF708B"/>
<rect x="575" y="24" width="20" height="14" fill="#FF708B"/>
<rect x="597" y="24" width="21" height="14" fill="#FF708B"/>
<rect x="620" y="24" width="21" height="14" fill="#FF708B"/>
<rect x="643" y="14" width="21" height="24" fill="#FF708B"/>
<rect x="666" y="24" width="21" height="14" fill="#FF708B"/>
<rect x="689" y="20" width="20" height="18" fill="#DBDFF1"/>
<rect x="711" y="21" width="20" height="17" fill="#DBDFF1"/>
<rect x="733" y="24" width="20" height="14" fill="#DBDFF1"/>
<rect x="755" y="24" width="20" height="14" fill="#DBDFF1"/>
<rect x="777" y="20" width="20" height="18" fill="#DBDFF1"/>
<rect x="799" y="24" width="20" height="14" fill="#DBDFF1"/>
<rect x="821" y="14" width="20" height="24" fill="#DBDFF1"/>
<rect x="843" y="24" width="20" height="14" fill="#DBDFF1"/>
<rect x="865" y="19" width="20" height="19" fill="#DBDFF1"/>
<rect x="887" y="20" width="20" height="18" fill="#DBDFF1"/>
<rect x="909" y="24" width="20" height="14" fill="#DBDFF1"/>
<rect x="931" y="24" width="20" height="14" fill="#DBDFF1"/>
<rect x="953" y="22" width="20" height="16" fill="#DBDFF1"/>
<rect x="975" y="21" width="20" height="17" fill="#DBDFF1"/>
<rect x="997" y="19" width="20" height="19" fill="#DBDFF1"/>
<rect x="1019" y="19" width="20" height="19" fill="#DBDFF1"/>
<rect x="1041" y="13" width="20" height="25" fill="#DBDFF1"/>
<rect x="1063" y="11" width="20" height="27" fill="#DBDFF1"/>
<rect x="1085" y="10" width="20" height="28" fill="#DBDFF1"/>
<rect x="1107" y="7" width="20" height="31" fill="#DBDFF1"/>
<rect x="1129" y="19" width="21" height="19" fill="#DBDFF1"/>
<rect x="1152" y="19" width="21" height="19" fill="#DBDFF1"/>
<rect x="1175" y="25" width="21" height="13" fill="#DBDFF1"/>
<rect x="1198" y="19" width="21" height="19" fill="#DBDFF1"/>
<rect x="1221" y="16" width="20" height="22" fill="#DBDFF1"/>
<rect x="1243" y="17" width="20" height="21" fill="#DBDFF1"/>
<rect x="1265" y="19" width="20" height="19" fill="#DBDFF1"/>
<rect x="1287" y="19" width="20" height="19" fill="#DBDFF1"/>
<rect x="1309" y="16" width="20" height="22" fill="#DBDFF1"/>
<rect x="1331" y="19" width="20" height="19" fill="#DBDFF1"/>
<rect x="1353" y="25" width="20" height="13" fill="#DBDFF1"/>
<rect x="1375" y="19" width="20" height="19" fill="#DBDFF1"/>
<rect x="1397" y="14" width="20" height="24" fill="#DBDFF1"/>
<rect x="1419" y="16" width="20" height="22" fill="#DBDFF1"/>
<rect x="1441" y="16" width="20" height="22" fill="#DBDFF1"/>
<rect x="1463" y="16" width="20" height="22" fill="#DBDFF1"/>
<rect x="1485" y="16" width="20" height="22" fill="#DBDFF1"/>
<rect x="1507" y="19" width="20" height="19" fill="#DBDFF1"/>
<rect x="1529" y="29" width="20" height="9" fill="#DBDFF1"/>
<rect x="1551" y="29" width="20" height="9" fill="#DBDFF1"/>
<rect x="1573" y="28" width="20" height="10" fill="#DBDFF1"/>
<rect x="1595" y="27" width="20" height="11" fill="#DBDFF1"/>
</g>
<defs>
<clipPath id="clip0_1567_15845">
<rect width="1615" height="38" fill="white"/>
</clipPath>
</defs>
</svg>
