<svg width="24" height="24" viewBox="0 0 24 24" fill="none" xmlns="http://www.w3.org/2000/svg">
<g clip-path="url(#clip0_1567_16063)">
<path d="M18.9011 10C19.2962 10.6856 19.9461 11.1872 20.7094 11.3957C21.4727 11.6042 22.2874 11.5026 22.9761 11.113C23.0571 11.8366 22.9104 12.5675 22.5564 13.2039C22.2023 13.8402 21.6587 14.3502 21.0011 14.663L21.0001 21H14.0001V19C14.0003 18.4954 13.8097 18.0094 13.4666 17.6395C13.1235 17.2695 12.6533 17.0428 12.1501 17.005L12.0001 17C11.4955 16.9998 11.0095 17.1904 10.6396 17.5335C10.2696 17.8766 10.0429 18.3468 10.0051 18.85L10.0001 19V21H3.0001V14.664C2.34125 14.3517 1.79638 13.8414 1.44159 13.2044C1.0868 12.5675 0.939791 11.8356 1.0211 11.111C1.70974 11.5014 2.52478 11.6036 3.28851 11.3955C4.05224 11.1874 4.70271 10.6858 5.0981 10H18.9011ZM17.9301 12H6.0691L5.9931 12.079C5.5621 12.499 5.0581 12.839 4.5071 13.081L4.4111 13.12L5.0001 13.4L4.9991 19L8.0011 18.999V18.927L8.0111 18.704C8.1601 16.688 9.7911 15.105 11.8651 15.006L12.0731 15.001L12.2961 15.011C13.2682 15.0831 14.1806 15.5077 14.8617 16.2051C15.5428 16.9024 15.9459 17.8245 15.9951 18.798L15.9991 18.999L19.0001 19L19.0011 13.4L19.5881 13.12L19.4931 13.08C18.9416 12.8385 18.4382 12.4994 18.0071 12.079L17.9301 12ZM17.0361 3C17.1076 3.4961 17.2849 3.97105 17.5559 4.39272C17.8268 4.81438 18.1852 5.17293 18.6068 5.4441C19.0283 5.71527 19.5032 5.89273 19.9992 5.96448C20.4953 6.03624 21.001 6.00061 21.4821 5.86C21.3965 6.68858 21.0182 7.45945 20.4151 8.03408C19.8121 8.60872 19.0238 8.94943 18.1921 8.995L18.0001 9H6.0001C5.13408 9.00014 4.29875 8.6792 3.65561 8.09923C3.01247 7.51925 2.60718 6.72143 2.5181 5.86C2.99921 6.00061 3.5049 6.03624 4.00097 5.96448C4.49703 5.89273 4.9719 5.71527 5.39345 5.4441C5.81499 5.17293 6.17337 4.81438 6.44435 4.39272C6.71533 3.97105 6.89258 3.4961 6.9641 3H17.0361ZM15.6001 5H8.3991C8.03882 5.70545 7.5306 6.32487 6.9091 6.816L6.6611 7H17.3381L17.3261 6.992C16.6829 6.53728 16.1445 5.95012 15.7471 5.27L15.6001 5Z" fill="white"/>
</g>
<defs>
<clipPath id="clip0_1567_16063">
<rect width="24" height="24" fill="white"/>
</clipPath>
</defs>
</svg>
